<svg width="65" height="66" viewBox="0 0 65 66" fill="none" xmlns="http://www.w3.org/2000/svg">
<path d="M46.1004 32.5596L33.0384 20.0423C31.5119 18.5736 30.2386 16.9315 29.2186 15.1158C28.1987 13.3002 27.6887 11.3227 27.6887 9.1833C27.6887 6.63219 28.5814 4.46386 30.367 2.67832C32.1502 0.892773 34.3162 0 36.865 0C38.7593 0 40.4824 0.512304 42.0343 1.53691C43.5863 2.56152 44.9405 3.80585 46.0969 5.2699C47.2533 3.80585 48.6087 2.56152 50.1629 1.53691C51.7126 0.512304 53.4357 0 55.3322 0C57.8833 0 60.0505 0.892773 61.8337 2.67832C63.617 4.46386 64.5109 6.63103 64.5155 9.17983C64.5155 11.3216 64.009 13.3002 62.996 15.1158C61.9806 16.9315 60.7097 18.5736 59.1832 20.0423L46.1004 32.5596ZM46.1004 27.7823L56.491 17.8358C57.7214 16.647 58.7888 15.3309 59.6932 13.8877C60.5952 12.4445 61.0462 10.8752 61.0462 9.17983C61.0462 7.59782 60.4911 6.25056 59.3809 5.13807C58.2708 4.02557 56.9212 3.46932 55.3322 3.46932C53.9445 3.46932 52.7002 3.88449 51.5992 4.71481C50.4983 5.54282 49.5096 6.52001 48.633 7.64639L46.1004 10.8208L43.5643 7.64639C42.6854 6.52001 41.6966 5.54282 40.598 4.71481C39.4971 3.88449 38.2528 3.46932 36.865 3.46932C35.2807 3.46932 33.9334 4.02442 32.8233 5.1346C31.7108 6.24941 31.1545 7.59782 31.1545 9.17983C31.1545 10.8752 31.6055 12.4445 32.5076 13.8877C33.4096 15.3309 34.477 16.647 35.7097 17.8358L46.1004 27.7823ZM13.8773 54.3088L40.1227 61.9656L60.9005 55.5473C60.8311 54.495 60.5154 53.7363 59.9534 53.2715C59.3913 52.8066 58.7553 52.5741 58.0452 52.5741H41.5833C40.1169 52.5741 38.787 52.5163 37.5936 52.4007C36.4001 52.285 35.1801 52.0098 33.9334 51.575L26.3356 49.084L27.5083 45.6563L34.5336 48.1958C35.6484 48.6191 36.9159 48.8735 38.336 48.9591C39.7538 49.0424 41.6966 49.0909 44.1645 49.1048C44.1645 48.0224 43.9656 47.1481 43.5678 46.482C43.1699 45.8159 42.5998 45.351 41.8574 45.0873L21.8949 37.7601C21.7631 37.7162 21.6405 37.6838 21.5271 37.663C21.4138 37.6422 21.2924 37.6306 21.1629 37.6283H13.8773V54.3088ZM0 62.4478V34.159H21.0796C21.4034 34.159 21.7365 34.196 22.0788 34.27C22.4211 34.344 22.7391 34.4296 23.0328 34.5267L43.0821 41.8713C44.3241 42.3431 45.3926 43.1908 46.2877 44.4143C47.1851 45.6378 47.6338 47.2013 47.6338 49.1048H58.0418C60.1326 49.1048 61.7331 49.7582 62.8433 51.065C63.9558 52.3741 64.5121 54.0336 64.5121 56.0434V58.1771L40.2962 65.65L13.8738 57.9481V62.4478H0ZM3.46932 58.9785H10.408V37.6283H3.46932V58.9785Z" fill="white"/>
</svg>
