<svg width="25" height="24" viewBox="0 0 25 24" fill="none" xmlns="http://www.w3.org/2000/svg">
<path d="M15.6498 8.39994C14.8834 8.39731 14.1239 8.54583 13.4149 8.83701C12.7059 9.12819 12.0613 9.55632 11.518 10.0969C10.9746 10.6375 10.5432 11.2799 10.2484 11.9873C9.95354 12.6948 9.80111 13.4535 9.7998 14.2199V20.0999C9.7998 20.3386 9.89463 20.5676 10.0634 20.7363C10.2322 20.9051 10.4611 20.9999 10.6998 20.9999H12.7998C13.0385 20.9999 13.2674 20.9051 13.4362 20.7363C13.605 20.5676 13.6998 20.3386 13.6998 20.0999V14.2199C13.6996 13.9473 13.7569 13.6778 13.8678 13.4288C13.9788 13.1798 14.141 12.957 14.3439 12.7749C14.5467 12.5928 14.7857 12.4555 15.0452 12.3719C15.3046 12.2884 15.5788 12.2604 15.8498 12.2899C16.3358 12.3512 16.7825 12.5886 17.105 12.9572C17.4276 13.3259 17.6036 13.8001 17.5998 14.2899V20.0999C17.5998 20.3386 17.6946 20.5676 17.8634 20.7363C18.0322 20.9051 18.2611 20.9999 18.4998 20.9999H20.5998C20.8385 20.9999 21.0674 20.9051 21.2362 20.7363C21.405 20.5676 21.4998 20.3386 21.4998 20.0999V14.2199C21.4985 13.4535 21.3461 12.6948 21.0512 11.9873C20.7564 11.2799 20.325 10.6375 19.7816 10.0969C19.2383 9.55632 18.5937 9.12819 17.8847 8.83701C17.1757 8.54583 16.4163 8.39731 15.6498 8.39994Z" fill="#F7A234"/>
<path d="M7.1 9.2998H4.4C3.90294 9.2998 3.5 9.70275 3.5 10.1998V20.0998C3.5 20.5969 3.90294 20.9998 4.4 20.9998H7.1C7.59706 20.9998 8 20.5969 8 20.0998V10.1998C8 9.70275 7.59706 9.2998 7.1 9.2998Z" fill="#F7A234"/>
<path d="M5.75 7.5C6.99264 7.5 8 6.49264 8 5.25C8 4.00736 6.99264 3 5.75 3C4.50736 3 3.5 4.00736 3.5 5.25C3.5 6.49264 4.50736 7.5 5.75 7.5Z" fill="#F7A234"/>
</svg>
