<svg width="24" height="25" viewBox="0 0 24 25" fill="none" xmlns="http://www.w3.org/2000/svg">
<path d="M18.3279 23.0001C17.4129 23.0001 16.1276 22.6691 14.2029 21.5938C11.8624 20.2813 10.0521 19.0696 7.72432 16.7479C5.47995 14.5049 4.38776 13.0527 2.85917 10.2711C1.13229 7.13052 1.42667 5.48427 1.75573 4.78068C2.1476 3.93974 2.72604 3.43677 3.4737 2.93755C3.89836 2.65932 4.34776 2.42081 4.8162 2.22505C4.86307 2.2049 4.90667 2.18568 4.94557 2.16833C5.1776 2.0638 5.52917 1.90583 5.97448 2.07458C6.27167 2.18615 6.53698 2.41443 6.95229 2.82458C7.80401 3.66458 8.96792 5.53537 9.39729 6.45412C9.68557 7.07333 9.87635 7.48208 9.87682 7.94052C9.87682 8.47724 9.60682 8.89115 9.27917 9.33787C9.21776 9.42177 9.15682 9.50193 9.09776 9.57974C8.74104 10.0485 8.66276 10.184 8.71432 10.4258C8.81885 10.9119 9.59839 12.359 10.8795 13.6372C12.1606 14.9155 13.5659 15.6458 14.0539 15.7499C14.306 15.8038 14.4443 15.7222 14.9281 15.3529C14.9974 15.2999 15.0687 15.2451 15.1432 15.1902C15.6429 14.8185 16.0376 14.5555 16.5617 14.5555H16.5645C17.0206 14.5555 17.411 14.7533 18.0579 15.0796C18.9017 15.5052 20.8287 16.6541 21.6739 17.5068C22.0849 17.9211 22.3142 18.1855 22.4262 18.4822C22.5949 18.929 22.436 19.2791 22.3324 19.5135C22.3151 19.5524 22.2959 19.5951 22.2757 19.6424C22.0784 20.11 21.8385 20.5585 21.559 20.9821C21.0607 21.7274 20.5559 22.3044 19.7131 22.6968C19.2803 22.9015 18.8067 23.0052 18.3279 23.0001Z" fill="#24ABA0"/>
</svg>
