<svg width="29" height="17" viewBox="0 0 29 17" fill="none" xmlns="http://www.w3.org/2000/svg">
<path d="M8.25 16V14.75C8.25 13.0924 8.90848 11.5027 10.0806 10.3306C11.2527 9.15848 12.8424 8.5 14.5 8.5M14.5 8.5C16.1576 8.5 17.7473 9.15848 18.9194 10.3306C20.0915 11.5027 20.75 13.0924 20.75 14.75V16M14.5 8.5C15.4946 8.5 16.4484 8.10491 17.1517 7.40165C17.8549 6.69839 18.25 5.74456 18.25 4.75C18.25 3.75544 17.8549 2.80161 17.1517 2.09835C16.4484 1.39509 15.4946 1 14.5 1C13.5054 1 12.5516 1.39509 11.8483 2.09835C11.1451 2.80161 10.75 3.75544 10.75 4.75C10.75 5.74456 11.1451 6.69839 11.8483 7.40165C12.5516 8.10491 13.5054 8.5 14.5 8.5ZM0.75 16V14.75C0.75 13.7554 1.14509 12.8016 1.84835 12.0983C2.55161 11.3951 3.50544 11 4.5 11M4.5 11C5.16304 11 5.79893 10.7366 6.26777 10.2678C6.73661 9.79893 7 9.16304 7 8.5C7 7.83696 6.73661 7.20107 6.26777 6.73223C5.79893 6.26339 5.16304 6 4.5 6C3.83696 6 3.20107 6.26339 2.73223 6.73223C2.26339 7.20107 2 7.83696 2 8.5C2 9.16304 2.26339 9.79893 2.73223 10.2678C3.20107 10.7366 3.83696 11 4.5 11ZM28.25 16V14.75C28.25 13.7554 27.8549 12.8016 27.1517 12.0983C26.4484 11.3951 25.4946 11 24.5 11M24.5 11C25.163 11 25.7989 10.7366 26.2678 10.2678C26.7366 9.79893 27 9.16304 27 8.5C27 7.83696 26.7366 7.20107 26.2678 6.73223C25.7989 6.26339 25.163 6 24.5 6C23.837 6 23.2011 6.26339 22.7322 6.73223C22.2634 7.20107 22 7.83696 22 8.5C22 9.16304 22.2634 9.79893 22.7322 10.2678C23.2011 10.7366 23.837 11 24.5 11Z" stroke="#24ABA0" stroke-linecap="round" stroke-linejoin="round"/>
</svg>
