<svg width="27" height="29" viewBox="0 0 27 29" fill="none" xmlns="http://www.w3.org/2000/svg">
<path d="M6 8.4375C5.25832 8.4375 4.5333 8.21757 3.91661 7.80551C3.29993 7.39346 2.81928 6.80779 2.53545 6.12256C2.25162 5.43734 2.17736 4.68334 2.32206 3.95591C2.46675 3.22848 2.8239 2.5603 3.34835 2.03585C3.8728 1.5114 4.54098 1.15425 5.26841 1.00956C5.99584 0.864862 6.74984 0.939125 7.43506 1.22295C8.12029 1.50678 8.70596 1.98743 9.11801 2.60411C9.53007 3.2208 9.75 3.94582 9.75 4.6875C9.75 5.68206 9.35491 6.63589 8.65165 7.33915C7.94839 8.04241 6.99456 8.4375 6 8.4375ZM6 2.8125C5.62916 2.8125 5.26665 2.92247 4.95831 3.1285C4.64996 3.33452 4.40964 3.62736 4.26773 3.96997C4.12581 4.31258 4.08868 4.68958 4.16103 5.0533C4.23337 5.41701 4.41195 5.7511 4.67417 6.01333C4.9364 6.27555 5.27049 6.45413 5.63421 6.52647C5.99792 6.59882 6.37492 6.56169 6.71753 6.41978C7.06014 6.27786 7.35298 6.03754 7.55901 5.7292C7.76503 5.42085 7.875 5.05834 7.875 4.6875C7.875 4.19022 7.67746 3.71331 7.32582 3.36168C6.97419 3.01005 6.49728 2.8125 6 2.8125ZM21 8.4375C20.2583 8.4375 19.5333 8.21757 18.9166 7.80551C18.2999 7.39346 17.8193 6.80779 17.5355 6.12256C17.2516 5.43734 17.1774 4.68334 17.3221 3.95591C17.4667 3.22848 17.8239 2.5603 18.3484 2.03585C18.8728 1.5114 19.541 1.15425 20.2684 1.00956C20.9958 0.864862 21.7498 0.939125 22.4351 1.22295C23.1203 1.50678 23.706 1.98743 24.118 2.60411C24.5301 3.2208 24.75 3.94582 24.75 4.6875C24.75 5.68206 24.3549 6.63589 23.6516 7.33915C22.9484 8.04241 21.9946 8.4375 21 8.4375ZM21 2.8125C20.6292 2.8125 20.2666 2.92247 19.9583 3.1285C19.65 3.33452 19.4096 3.62736 19.2677 3.96997C19.1258 4.31258 19.0887 4.68958 19.161 5.0533C19.2334 5.41701 19.412 5.7511 19.6742 6.01333C19.9364 6.27555 20.2705 6.45413 20.6342 6.52647C20.9979 6.59882 21.3749 6.56169 21.7175 6.41978C22.0601 6.27786 22.353 6.03754 22.559 5.7292C22.765 5.42085 22.875 5.05834 22.875 4.6875C22.875 4.19022 22.6775 3.71331 22.3258 3.36168C21.9742 3.01005 21.4973 2.8125 21 2.8125ZM22.875 28.125H19.125C18.6277 28.125 18.1508 27.9275 17.7992 27.5758C17.4475 27.2242 17.25 26.7473 17.25 26.25V19.6875H19.125V26.25H22.875V17.8125H24.75V12.1875C24.75 11.9389 24.6512 11.7004 24.4754 11.5246C24.2996 11.3488 24.0611 11.25 23.8125 11.25H17.7938L13.5 18.75L9.20625 11.25H3.1875C2.93886 11.25 2.7004 11.3488 2.52459 11.5246C2.34877 11.7004 2.25 11.9389 2.25 12.1875V17.8125H4.125V26.25H7.875V19.6875H9.75V26.25C9.75 26.7473 9.55246 27.2242 9.20082 27.5758C8.84919 27.9275 8.37228 28.125 7.875 28.125H4.125C3.62772 28.125 3.15081 27.9275 2.79917 27.5758C2.44754 27.2242 2.25 26.7473 2.25 26.25V19.6875C1.75272 19.6875 1.27581 19.49 0.924175 19.1383C0.572544 18.7867 0.375 18.3098 0.375 17.8125V12.1875C0.375 11.4416 0.671316 10.7262 1.19876 10.1988C1.72621 9.67132 2.44158 9.375 3.1875 9.375H10.2937L13.5 15L16.7062 9.375H23.8125C24.5584 9.375 25.2738 9.67132 25.8012 10.1988C26.3287 10.7262 26.625 11.4416 26.625 12.1875V17.8125C26.625 18.3098 26.4275 18.7867 26.0758 19.1383C25.7242 19.49 25.2473 19.6875 24.75 19.6875V26.25C24.75 26.7473 24.5525 27.2242 24.2008 27.5758C23.8492 27.9275 23.3723 28.125 22.875 28.125Z" fill="white"/>
</svg>
