<svg width="50" height="50" viewBox="0 0 50 50" fill="none" xmlns="http://www.w3.org/2000/svg">
<path d="M34.0957 33.7061L35.1624 32.6394C37.0707 30.7311 40.229 30.7957 42.2165 32.7853C44.204 34.7707 44.2686 37.929 42.3603 39.8373L41.2936 40.904C41.1878 40.6375 41.071 40.3755 40.9436 40.1186C40.2814 38.823 39.4148 37.6426 38.377 36.6228C37.3571 35.5849 36.1767 34.7183 34.8811 34.0561C34.6242 33.9287 34.3622 33.8119 34.0957 33.7061ZM31.5415 36.2603L30.5561 37.2457C28.6478 39.154 28.7124 42.3123 30.702 44.2998C32.6874 46.2873 35.8457 46.3519 37.754 44.4436L38.7395 43.4582L38.5311 42.479L38.5249 42.4561L38.4707 42.2811C38.3797 42.0172 38.2711 41.7596 38.1457 41.5103C37.6338 40.5176 36.9655 39.6137 36.1665 38.8332C35.1249 37.7894 34.1624 37.1873 33.4895 36.854C33.185 36.7021 32.8687 36.5753 32.5436 36.4748L32.5207 36.4686L31.5415 36.2603ZM12.6582 5.45192C12.4999 5.83525 12.4999 6.32067 12.4999 7.2915C12.4999 8.26234 12.4999 8.74775 12.6582 9.13109C12.8701 9.64054 13.2754 10.0451 13.7853 10.2561C14.1686 10.4165 14.654 10.4165 15.6249 10.4165H34.3749C35.3457 10.4165 35.8311 10.4165 36.2145 10.2582C36.7239 10.0463 37.1285 9.64093 37.3395 9.13109C37.4999 8.74775 37.4999 8.26234 37.4999 7.2915C37.4999 6.32067 37.4999 5.83525 37.3415 5.45192C37.1296 4.94246 36.7243 4.53787 36.2145 4.32692C35.8311 4.1665 35.3457 4.1665 34.3749 4.1665H15.6249C14.654 4.1665 14.1686 4.1665 13.7853 4.32484C13.2758 4.53673 12.8692 4.94207 12.6582 5.45192ZM16.1457 12.4998L11.4603 16.2478C10.4479 17.0571 9.63825 18.0915 9.0957 19.2686H40.9165C40.3812 18.094 39.5803 17.0599 38.577 16.2478L33.9457 12.4998H16.1457Z" fill="white"/>
<path fill-rule="evenodd" clip-rule="evenodd" d="M41.6663 22.7252C41.6663 22.6154 41.6643 22.5057 41.6601 22.396H8.34134L8.33301 22.7543V35.9377H27.5705C27.8011 35.6238 28.0601 35.3231 28.3476 35.0356L32.9518 30.4314C35.3351 28.0481 38.7747 27.5627 41.6663 28.7397V22.7252ZM26.5622 27.6043V25.0002C26.5622 24.5858 26.3976 24.1883 26.1045 23.8953C25.8115 23.6023 25.4141 23.4377 24.9997 23.4377C24.5853 23.4377 24.1878 23.6023 23.8948 23.8953C23.6018 24.1883 23.4372 24.5858 23.4372 25.0002V27.6043H20.833C20.4186 27.6043 20.0212 27.7689 19.7282 28.062C19.4351 28.355 19.2705 28.7524 19.2705 29.1668C19.2705 29.5812 19.4351 29.9787 19.7282 30.2717C20.0212 30.5647 20.4186 30.7293 20.833 30.7293H23.4372V33.3335C23.4372 33.7479 23.6018 34.1453 23.8948 34.4384C24.1878 34.7314 24.5853 34.896 24.9997 34.896C25.4141 34.896 25.8115 34.7314 26.1045 34.4384C26.3976 34.1453 26.5622 33.7479 26.5622 33.3335V30.7293H29.1663C29.5807 30.7293 29.9782 30.5647 30.2712 30.2717C30.5642 29.9787 30.7288 29.5812 30.7288 29.1668C30.7288 28.7524 30.5642 28.355 30.2712 28.062C29.9782 27.7689 29.5807 27.6043 29.1663 27.6043H26.5622Z" fill="white"/>
<path d="M26.1939 39.0625C25.9668 40.2462 26.0005 41.4652 26.2927 42.6346C26.5848 43.8039 27.1284 44.8955 27.8855 45.8333H18.6605C17.471 45.8333 16.8751 45.8333 16.3126 45.7562C14.6392 45.527 13.075 44.7946 11.8272 43.6562C11.4085 43.2729 11.0272 42.8146 10.2647 41.9021C9.56826 41.0657 9.04239 40.101 8.7168 39.0625H26.1939Z" fill="white"/>
</svg>
