<svg width="50" height="50" viewBox="0 0 50 50" fill="none" xmlns="http://www.w3.org/2000/svg">
<path fill-rule="evenodd" clip-rule="evenodd" d="M19.9722 3.44167C21.5816 2.87917 23.4618 2.34375 25.0003 2.34375C26.5389 2.34375 28.4191 2.87917 30.0285 3.44167C31.7055 4.02917 33.3618 4.74792 34.5472 5.29271C36.2732 6.08542 37.5576 7.70312 37.7659 9.71146C37.8993 10.9823 38.0212 12.8406 38.0212 15.3646C38.0212 17.8885 37.8993 19.7458 37.767 21.0177C37.7392 21.2809 37.6941 21.5368 37.6316 21.7854C38.7441 21.9875 39.9128 22.3438 40.9649 22.7125C42.643 23.3 44.3003 24.0187 45.4847 24.5635C47.2107 25.3562 48.4951 26.974 48.7034 28.9823C48.8368 30.2531 48.9587 32.1115 48.9587 34.6354C48.9587 37.1594 48.8368 39.0167 48.7045 40.2885C48.4962 42.2969 47.2107 43.9135 45.4847 44.7073C44.3003 45.2521 42.643 45.9708 40.966 46.5583C39.3566 47.1208 37.4764 47.6562 35.9378 47.6562C34.3993 47.6562 32.5191 47.1219 30.9097 46.5583C29.2326 45.9708 27.5764 45.2521 26.3909 44.7073C25.8862 44.4759 25.4178 44.1724 25.0003 43.8062C24.5857 44.1708 24.117 44.475 23.6097 44.7073C22.4253 45.2521 20.768 45.9708 19.091 46.5583C17.4816 47.1208 15.6014 47.6562 14.0628 47.6562C12.5243 47.6562 10.6441 47.1219 9.0347 46.5583C7.35762 45.9708 5.70137 45.2521 4.51595 44.7073C2.78991 43.9146 1.50553 42.2969 1.2972 40.2885C1.16283 39.0177 1.04199 37.1594 1.04199 34.6354C1.04199 32.1115 1.16387 30.2542 1.29616 28.9823C1.50449 26.974 2.78991 25.3573 4.51595 24.5635C5.70033 24.0187 7.35762 23.3 9.0347 22.7125C10.0868 22.3448 11.2566 21.9885 12.3701 21.7854C12.3059 21.5333 12.2606 21.2766 12.2347 21.0177C12.1014 19.7469 11.9795 17.8885 11.9795 15.3646C11.9795 12.8406 12.1014 10.9833 12.2337 9.71146C12.442 7.70312 13.7274 6.08646 15.4535 5.29271C16.6378 4.74792 18.2951 4.02917 19.9722 3.44167ZM27.0837 34.6354C27.0837 37.025 27.1993 38.7396 27.3159 39.8583C27.3597 40.2854 27.6337 40.6927 28.1316 40.9208C29.2566 41.4385 30.7816 42.0979 32.2868 42.625C32.8472 42.8219 33.3743 42.9875 33.8545 43.1208V34.1458C33.4482 34.024 33.0212 33.8792 32.5857 33.7208C31.3049 33.2437 30.0403 32.724 28.7941 32.1625C28.2274 31.9104 27.6764 31.6594 27.1628 31.4208C27.1084 32.4915 27.082 33.5634 27.0837 34.6354ZM38.0212 34.1469V43.1208C38.5014 42.9875 39.0285 42.8219 39.5899 42.625C41.0941 42.099 42.6191 41.4385 43.7441 40.9219C44.242 40.6927 44.5149 40.2854 44.5597 39.8583C44.6764 38.7385 44.792 37.025 44.792 34.6354C44.792 33.3823 44.7607 32.3146 44.7128 31.4219C44.1993 31.6604 43.6482 31.9115 43.0816 32.1635C41.8354 32.725 40.5708 33.2447 39.2899 33.7219C38.8555 33.8802 38.4274 34.025 38.0212 34.1469ZM22.917 34.6354C22.917 33.3823 22.8857 32.3146 22.8378 31.4219C22.3243 31.6604 21.7732 31.9115 21.2066 32.1635C19.9604 32.725 18.6958 33.2447 17.4149 33.7219C16.9805 33.8802 16.5524 34.025 16.1462 34.1469V43.1208C16.6264 42.9875 17.1534 42.8219 17.7139 42.625C19.2191 42.099 20.7451 41.4385 21.8701 40.9219C22.367 40.6927 22.6409 40.2854 22.6847 39.8583C22.8014 38.7385 22.917 37.025 22.917 34.6354ZM10.7107 33.7219C11.1451 33.8802 11.5732 34.025 11.9795 34.1469V43.1208C11.4516 42.9728 10.9288 42.8074 10.4118 42.625C8.90658 42.099 7.38053 41.4385 6.25553 40.9219C5.75866 40.6927 5.4847 40.2854 5.44095 39.8583C5.32324 38.7385 5.20866 37.025 5.20866 34.6354C5.20866 33.3823 5.23991 32.3146 5.28783 31.4219C5.80137 31.6604 6.35241 31.9115 6.91908 32.1635C8.16528 32.725 9.42988 33.2447 10.7107 33.7219ZM16.2253 12.151C16.1709 13.2213 16.1445 14.2929 16.1462 15.3646C16.1462 17.7542 16.2618 19.4688 16.3784 20.5875C16.4222 21.0146 16.6962 21.4219 17.1941 21.65C18.3191 22.1677 19.8441 22.8271 21.3493 23.3542C21.9097 23.551 22.4368 23.7167 22.917 23.85V14.875C22.5107 14.7531 22.0837 14.6083 21.6482 14.45C20.3674 13.9729 19.1028 13.4531 17.8566 12.8917C17.2899 12.6396 16.7389 12.3885 16.2253 12.15M28.6524 23.3531C28.0899 23.55 27.5639 23.7156 27.0837 23.849V14.875C27.4899 14.7531 27.917 14.6083 28.3524 14.45C29.6333 13.9729 30.8979 13.4531 32.1441 12.8917C32.7107 12.6396 33.2618 12.3885 33.7753 12.15C33.8232 13.0427 33.8545 14.1104 33.8545 15.3635C33.8545 17.7531 33.7389 19.4677 33.6222 20.5865C33.5784 21.0135 33.3045 21.4208 32.8066 21.649C31.4477 22.279 30.0613 22.8476 28.6514 23.3531" fill="white"/>
</svg>
