<svg width="50" height="42" viewBox="0 0 50 42" fill="none" xmlns="http://www.w3.org/2000/svg">
<path d="M4.13194 22.9023L19.8177 37.7294C20.4688 38.3447 21.3281 38.6874 22.2222 38.6874C23.1163 38.6874 23.9757 38.3447 24.6267 37.7294L24.8524 37.5185C23.1944 35.0488 22.2222 32.0605 22.2222 28.8437C22.2222 20.3007 29.0625 13.3749 37.5 13.3749C39.9566 13.3749 42.2743 13.9638 44.3316 15.0009C44.4097 14.4296 44.4444 13.8583 44.4444 13.2782V12.7685C44.4444 6.62492 40.0608 1.38664 34.0799 0.375898C30.1215 -0.292071 26.0937 1.0175 23.2639 3.88273L22.2222 4.93742L21.1806 3.88273C18.3507 1.0175 14.3229 -0.292071 10.3646 0.375898C4.38368 1.38664 0 6.62492 0 12.7685V13.2782C0 16.9257 1.49306 20.415 4.13194 22.9023ZM37.5 41.4999C40.8152 41.4999 43.9946 40.1665 46.3388 37.793C48.683 35.4195 50 32.2003 50 28.8437C50 25.487 48.683 22.2679 46.3388 19.8944C43.9946 17.5208 40.8152 16.1874 37.5 16.1874C34.1848 16.1874 31.0054 17.5208 28.6612 19.8944C26.317 22.2679 25 25.487 25 28.8437C25 32.2003 26.317 35.4195 28.6612 37.793C31.0054 40.1665 34.1848 41.4999 37.5 41.4999ZM38.8889 23.2187V27.4374H43.0556C43.8194 27.4374 44.4444 28.0702 44.4444 28.8437C44.4444 29.6171 43.8194 30.2499 43.0556 30.2499H38.8889V34.4687C38.8889 35.2421 38.2639 35.8749 37.5 35.8749C36.7361 35.8749 36.1111 35.2421 36.1111 34.4687V30.2499H31.9444C31.1806 30.2499 30.5556 29.6171 30.5556 28.8437C30.5556 28.0702 31.1806 27.4374 31.9444 27.4374H36.1111V23.2187C36.1111 22.4452 36.7361 21.8124 37.5 21.8124C38.2639 21.8124 38.8889 22.4452 38.8889 23.2187Z" fill="white"/>
</svg>
