<svg width="50" height="40" viewBox="0 0 50 40" fill="none" xmlns="http://www.w3.org/2000/svg">
<path d="M25.2656 6.79525L17.7031 12.8564C16.4453 13.8615 16.2031 15.6706 17.1562 16.9617C18.1641 18.3378 20.125 18.6084 21.4766 17.5647L29.2344 11.5963C29.7812 11.1788 30.5625 11.2716 30.9922 11.8127C31.4219 12.3539 31.3203 13.127 30.7734 13.5522L29.1406 14.8047L40 24.7005V10.1042H39.9453L39.6406 9.91089L33.9688 6.31592C32.7734 5.55827 31.375 5.15625 29.9531 5.15625C28.25 5.15625 26.5938 5.73608 25.2656 6.79525ZM27.0469 16.4128L23.0078 19.5207C20.5469 21.4225 16.9766 20.9277 15.1328 18.4229C13.3984 16.0649 13.8359 12.7714 16.125 10.9391L22.625 5.73608C21.7188 5.35726 20.7422 5.16398 19.75 5.16398C18.2812 5.15625 16.8516 5.58919 15.625 6.39323L10 10.1042V27.4219H12.2031L19.3438 33.8696C20.875 35.2535 23.2422 35.1453 24.6406 33.63C25.0703 33.1584 25.3594 32.6095 25.5078 32.0374L26.8359 33.2434C28.3594 34.6273 30.7344 34.5268 32.1328 33.0192C32.4844 32.6404 32.7422 32.1997 32.9062 31.7436C34.4219 32.7486 36.4844 32.5399 37.7578 31.1637C39.1562 29.6562 39.0547 27.3059 37.5312 25.922L27.0469 16.4128ZM1.25 10.1042C0.5625 10.1042 0 10.6608 0 11.3411V27.4219C0 28.7903 1.11719 29.8958 2.5 29.8958H5C6.38281 29.8958 7.5 28.7903 7.5 27.4219V10.1042H1.25ZM3.75 24.9479C4.08152 24.9479 4.39946 25.0782 4.63388 25.3102C4.8683 25.5422 5 25.8568 5 26.1849C5 26.513 4.8683 26.8276 4.63388 27.0596C4.39946 27.2916 4.08152 27.4219 3.75 27.4219C3.41848 27.4219 3.10054 27.2916 2.86612 27.0596C2.6317 26.8276 2.5 26.513 2.5 26.1849C2.5 25.8568 2.6317 25.5422 2.86612 25.3102C3.10054 25.0782 3.41848 24.9479 3.75 24.9479ZM42.5 10.1042V27.4219C42.5 28.7903 43.6172 29.8958 45 29.8958H47.5C48.8828 29.8958 50 28.7903 50 27.4219V11.3411C50 10.6608 49.4375 10.1042 48.75 10.1042H42.5ZM45 26.1849C45 25.8568 45.1317 25.5422 45.3661 25.3102C45.6005 25.0782 45.9185 24.9479 46.25 24.9479C46.5815 24.9479 46.8995 25.0782 47.1339 25.3102C47.3683 25.5422 47.5 25.8568 47.5 26.1849C47.5 26.513 47.3683 26.8276 47.1339 27.0596C46.8995 27.2916 46.5815 27.4219 46.25 27.4219C45.9185 27.4219 45.6005 27.2916 45.3661 27.0596C45.1317 26.8276 45 26.513 45 26.1849Z" fill="white"/>
</svg>
