<svg width="24" height="25" viewBox="0 0 24 25" fill="none" xmlns="http://www.w3.org/2000/svg">
<path fill-rule="evenodd" clip-rule="evenodd" d="M10.276 2.755C10.359 2.75 10.447 2.75 10.561 2.75H13.44C13.553 2.75 13.641 2.75 13.725 2.755C14.2446 2.78658 14.7445 2.96498 15.1667 3.26946C15.5889 3.57393 15.916 3.99197 16.11 4.475C16.141 4.552 16.17 4.635 16.205 4.743L16.208 4.753C16.292 4.977 16.483 5.232 16.751 5.436C16.781 5.45867 16.811 5.48 16.841 5.5C18.994 5.503 20.119 5.542 20.893 6.173C21.053 6.303 21.1977 6.44767 21.327 6.607C22 7.434 22 8.659 22 11.109C22 11.731 22 12.041 21.85 12.284C21.8205 12.3314 21.787 12.3762 21.75 12.418C21.56 12.632 21.263 12.721 20.668 12.9L16 14.3V13.5C16 12.9696 15.7893 12.4609 15.4142 12.0858C15.0391 11.7107 14.5304 11.5 14 11.5H10C9.46957 11.5 8.96086 11.7107 8.58579 12.0858C8.21071 12.4609 8 12.9696 8 13.5V14.3L3.332 12.9C2.737 12.721 2.439 12.632 2.25 12.418C2.21298 12.3762 2.17953 12.3314 2.15 12.284C2 12.041 2 11.731 2 11.109C2 8.659 2 7.434 2.673 6.607C2.803 6.447 2.94767 6.30233 3.107 6.173C3.882 5.543 5.006 5.503 7.16 5.5C7.19 5.48 7.22 5.45867 7.25 5.436C7.517 5.232 7.709 4.976 7.792 4.753C7.83 4.639 7.858 4.553 7.89 4.474C8.08415 3.99116 8.41132 3.57333 8.83351 3.26904C9.25569 2.96475 9.75554 2.7865 10.275 2.755M14.818 5.318C14.8413 5.38 14.868 5.44067 14.898 5.5H9.101C9.12967 5.44 9.15633 5.37933 9.181 5.318V5.315L9.186 5.305L9.191 5.293L9.196 5.281L9.199 5.271L9.201 5.266L9.205 5.254L9.209 5.242L9.211 5.236L9.214 5.228L9.216 5.221L9.218 5.215C9.257 5.099 9.269 5.062 9.281 5.034C9.36915 4.81442 9.51781 4.62437 9.7097 4.48594C9.90159 4.34751 10.1288 4.26639 10.365 4.252C10.397 4.25 10.437 4.25 10.58 4.25H13.418C13.561 4.25 13.601 4.25 13.633 4.252C14.115 4.282 14.537 4.586 14.718 5.034C14.728 5.062 14.741 5.097 14.78 5.215L14.782 5.221L14.784 5.228L14.787 5.236L14.789 5.242L14.793 5.254L14.797 5.266L14.799 5.271L14.803 5.281L14.807 5.293L14.812 5.305L14.816 5.315L14.818 5.318ZM14 13H10C9.86739 13 9.74021 13.0527 9.64645 13.1464C9.55268 13.2402 9.5 13.3674 9.5 13.5V15.662C9.50002 15.7619 9.52994 15.8594 9.58591 15.9421C9.64187 16.0248 9.72131 16.0889 9.814 16.126L10.514 16.406C11.4679 16.7877 12.5321 16.7877 13.486 16.406L14.186 16.126C14.2787 16.0889 14.3581 16.0248 14.4141 15.9421C14.4701 15.8594 14.5 15.7619 14.5 15.662V13.5C14.5 13.3674 14.4473 13.2402 14.3536 13.1464C14.2598 13.0527 14.1326 13 14 13ZM8.01 15.87L3.006 14.368C3.036 17.482 3.218 20.351 4.318 21.328C5.636 22.5 7.758 22.5 12 22.5C16.242 22.5 18.364 22.5 19.682 21.328C20.782 20.351 20.964 17.482 20.994 14.368L15.989 15.869C15.9513 16.2314 15.8154 16.5767 15.5958 16.8675C15.3762 17.1583 15.0813 17.3836 14.743 17.519L14.043 17.799C12.7315 18.3237 11.2685 18.3237 9.957 17.799L9.257 17.519C8.9187 17.3836 8.62383 17.1583 8.40424 16.8675C8.18464 16.5767 8.04867 16.2314 8.011 15.869" fill="#24ABA0"/>
</svg>
