<svg width="50" height="50" viewBox="0 0 50 50" fill="none" xmlns="http://www.w3.org/2000/svg">
<path fill-rule="evenodd" clip-rule="evenodd" d="M24.9997 1.65733L26.3461 0.693046C26.1927 0.479212 25.9905 0.304994 25.7564 0.184816C25.5222 0.0646369 25.2628 0.00195312 24.9997 0.00195312C24.7365 0.00195313 24.4771 0.0646369 24.243 0.184816C24.0088 0.304994 23.8067 0.479212 23.6532 0.693046L24.9997 1.65733ZM24.9997 1.65733L23.6532 0.693046L23.6461 0.700189L23.6282 0.721618L23.5711 0.807332C23.2353 1.2785 22.9067 1.75475 22.5854 2.2359C21.7783 3.43865 21.0019 4.66166 20.2568 5.90376C19.3792 7.3439 18.5873 8.83459 17.8854 10.368C17.2568 11.7788 16.7068 13.3359 16.7068 14.6466C16.7068 16.9002 17.564 19.0752 19.1104 20.6859C20.6568 22.2966 22.7782 23.2216 24.9997 23.2216C27.2211 23.2216 29.339 22.3002 30.889 20.6859C32.439 19.0716 33.2925 16.9002 33.2925 14.6502C33.2925 13.3359 32.7425 11.7788 32.114 10.3645C31.412 8.83102 30.6202 7.34033 29.7425 5.90019C28.7009 4.16349 27.5954 2.4659 26.4282 0.810903L26.3711 0.721618L26.3532 0.700189L26.3497 0.696617L24.9997 1.6609V1.65733ZM-0.000334821 18.2573V35.1359C6.97318e-05 37.0302 0.752884 38.8467 2.09252 40.1859L9.91752 48.0109V50.0002H21.8211V39.7359C21.8213 38.6946 21.6164 37.6635 21.2181 36.7014C20.8198 35.7394 20.2359 34.8652 19.4997 34.1288L14.364 28.993L14.3497 28.9788C13.7841 28.5083 13.0588 28.2741 12.3249 28.325C11.591 28.3759 10.905 28.7079 10.4097 29.252C9.91448 29.796 9.64818 30.5101 9.66626 31.2456C9.68435 31.981 9.98543 32.6812 10.5068 33.2002L13.7925 36.4859C13.9631 36.6506 14.0991 36.8477 14.1927 37.0655C14.2863 37.2834 14.3356 37.5177 14.3376 37.7548C14.3397 37.9919 14.2945 38.2271 14.2047 38.4465C14.1149 38.666 13.9823 38.8654 13.8147 39.033C13.647 39.2007 13.4476 39.3333 13.2282 39.4231C13.0087 39.5129 12.7736 39.5581 12.5364 39.556C12.2993 39.5539 12.065 39.5047 11.8472 39.4111C11.6293 39.3175 11.4322 39.1815 11.2675 39.0109L7.98181 35.7252C6.78647 34.5285 6.1109 32.909 6.10154 31.2176C6.09218 29.5262 6.74978 27.8993 7.93181 26.6895V18.2538C7.93181 17.2014 7.51377 16.1922 6.76965 15.4481C6.02553 14.7039 5.01629 14.2859 3.96395 14.2859C2.91161 14.2859 1.90237 14.7039 1.15825 15.4481C0.414135 16.1922 -0.00390625 17.2014 -0.00390625 18.2538L-0.000334821 18.2573ZM49.9997 35.1359V18.2573C49.9997 17.205 49.5816 16.1958 48.8375 15.4516C48.0934 14.7075 47.0842 14.2895 46.0318 14.2895C44.9795 14.2895 43.9702 14.7075 43.2261 15.4516C42.482 16.1958 42.064 17.205 42.064 18.2573V26.6895C43.2481 27.8996 43.9071 29.5281 43.8978 31.2212C43.8884 32.9143 43.2115 34.5354 42.014 35.7323L38.7282 39.0145C38.3914 39.3398 37.9404 39.5197 37.4722 39.5157C37.004 39.5116 36.5561 39.3238 36.225 38.9927C35.8939 38.6616 35.7061 38.2138 35.702 37.7456C35.698 37.2773 35.878 36.8263 36.2032 36.4895L39.489 33.2038C40.0194 32.6864 40.3281 31.9832 40.35 31.2426C40.3718 30.5019 40.1051 29.7817 39.606 29.234C39.107 28.6863 38.4146 28.3539 37.6751 28.3069C36.9357 28.26 36.2069 28.5021 35.6425 28.9823L35.6282 28.9966L30.4997 34.1252C29.7631 34.862 29.1789 35.7368 28.7806 36.6995C28.3822 37.6622 28.1776 38.694 28.1782 39.7359V50.0002H40.0782V48.0145L47.9032 40.1859C48.5672 39.5231 49.0941 38.7359 49.4538 37.8694C49.8135 37.003 49.999 36.0741 49.9997 35.1359Z" fill="#24ABA0"/>
</svg>
