<svg width="36" height="42" viewBox="0 0 36 42" fill="none" xmlns="http://www.w3.org/2000/svg">
<path d="M6.58301 6.06233C6.58301 9.28524 10.1788 12.6832 13.1455 14.9373C14.8101 16.1998 15.6413 16.8332 16.9997 16.8332C18.358 16.8332 19.1893 16.1998 20.8538 14.9373C23.8205 12.6811 27.4163 9.28316 27.4163 6.06233C27.4163 0.249826 21.6872 -1.92309 16.9997 2.56858C12.3122 -1.92309 6.58301 0.249826 6.58301 6.06233ZM5.04134 40.5582H4.49967C2.53509 40.5582 1.55384 40.5582 0.943425 39.9477C0.333008 39.3415 0.333008 38.3582 0.333008 36.3936V34.0769C0.333008 32.9977 0.333008 32.4582 0.610091 31.9748C0.887174 31.4915 1.30592 31.2498 2.14342 30.7623C7.65592 27.5561 15.483 25.7519 20.7059 28.8665C21.0573 29.0762 21.3698 29.3318 21.6434 29.6332C21.9237 29.9395 22.1398 30.299 22.2786 30.6904C22.4175 31.0818 22.4765 31.497 22.452 31.9116C22.4275 32.3261 22.3201 32.7315 22.1361 33.1038C21.9522 33.4761 21.6954 33.8077 21.3809 34.079C21.1304 34.3168 20.8247 34.4886 20.4913 34.579C20.7413 34.5498 20.9809 34.5172 21.2101 34.4811C23.108 34.179 24.7018 33.1623 26.1601 32.0602L29.9268 29.2165C30.5991 28.7286 31.4085 28.4659 32.2393 28.4659C33.07 28.4659 33.8794 28.7286 34.5518 29.2165C35.7455 30.1186 36.1122 31.604 35.3559 32.8165C34.4747 34.229 33.233 36.0352 32.0413 37.1394C30.8497 38.2436 29.0705 39.2311 27.6205 39.9311C26.0122 40.7082 24.2372 41.154 22.4309 41.4477C18.7684 42.0394 14.9518 41.9477 11.3268 41.2019C9.25868 40.7762 7.15278 40.5592 5.04134 40.5582Z" fill="#24ABA0"/>
</svg>
