<svg width="42" height="38" viewBox="0 0 42 38" fill="none" xmlns="http://www.w3.org/2000/svg">
<path d="M2.26009 0.256348H39.7601C40.3126 0.256348 40.8425 0.475841 41.2332 0.866542C41.6239 1.25724 41.8434 1.78715 41.8434 2.33968V35.673C41.8434 36.2255 41.6239 36.7554 41.2332 37.1461C40.8425 37.5368 40.3126 37.7563 39.7601 37.7563H2.26009C1.70756 37.7563 1.17765 37.5368 0.786952 37.1461C0.396251 36.7554 0.176758 36.2255 0.176758 35.673V2.33968C0.176758 1.78715 0.396251 1.25724 0.786952 0.866542C1.17765 0.475841 1.70756 0.256348 2.26009 0.256348ZM26.8288 14.4084L21.7247 19.5126L17.3059 15.0918L8.46634 23.9313L11.4122 26.8772L17.3059 20.9855L21.7247 25.4022L29.7747 17.3543L33.5101 21.0897V10.673H23.0934L26.8288 14.4084Z" fill="#24ABA0"/>
</svg>
