<svg width="50" height="50" viewBox="0 0 50 50" fill="none" xmlns="http://www.w3.org/2000/svg">
<path fill-rule="evenodd" clip-rule="evenodd" d="M15.817 23.5044C13.6926 21.3799 12.499 18.4985 12.499 15.494C12.499 12.4895 13.6926 9.60805 15.817 7.48355C17.9415 5.35906 20.823 4.16553 23.8275 4.16553C26.832 4.16553 29.7134 5.35906 31.8379 7.48355L35.8421 11.4898L35.642 12.5211L35.64 12.5398L35.6129 12.6523C35.5697 12.8232 35.521 12.9928 35.467 13.1606C35.2482 13.8377 34.9801 14.4977 34.665 15.1356C33.8566 16.8148 32.4233 19.1419 29.9483 21.6148C27.4733 24.0919 25.1483 25.5231 23.4691 26.3336C22.6295 26.7377 21.9483 26.9856 21.4941 27.1315C21.2895 27.1978 21.0824 27.2562 20.8733 27.3065L20.8545 27.3106L19.8233 27.5086L15.817 23.5044ZM28.1879 9.31272C28.0448 9.1592 27.8723 9.03607 27.6807 8.95067C27.489 8.86527 27.2821 8.81935 27.0723 8.81565C26.8625 8.81195 26.6541 8.85054 26.4596 8.92913C26.265 9.00771 26.0883 9.12468 25.9399 9.27305C25.7915 9.42143 25.6745 9.59816 25.596 9.79272C25.5174 9.98728 25.4788 10.1957 25.4825 10.4055C25.4862 10.6153 25.5321 10.8222 25.6175 11.0138C25.7029 11.2055 25.826 11.378 25.9795 11.5211L29.1045 14.6461C29.2476 14.7996 29.4201 14.9227 29.6118 15.0081C29.8034 15.0935 30.0103 15.1394 30.2201 15.1431C30.4299 15.1468 30.6383 15.1082 30.8329 15.0296C31.0274 14.9511 31.2042 14.8341 31.3525 14.6857C31.5009 14.5373 31.6179 14.3606 31.6965 14.166C31.7751 13.9715 31.8137 13.7631 31.8099 13.5533C31.8062 13.3435 31.7603 13.1366 31.6749 12.9449C31.5895 12.7533 31.4664 12.5808 31.3129 12.4377L28.1879 9.31272Z" fill="#24ABA0"/>
<path d="M38.4417 14.1124L38.448 14.0957L42.5167 18.1624C43.5687 19.2143 44.4031 20.4632 44.9724 21.8376C45.5417 23.212 45.8348 24.6851 45.8348 26.1728C45.8348 27.6605 45.5417 29.1336 44.9724 30.508C44.4031 31.8824 43.5687 33.1313 42.5167 34.1832C41.4648 35.2351 40.216 36.0696 38.8415 36.6389C37.4671 37.2082 35.994 37.5012 34.5063 37.5012C33.0187 37.5012 31.5455 37.2082 30.1711 36.6389C28.7967 36.0696 27.5478 35.2351 26.4959 34.1832L22.4292 30.1145L22.4438 30.1082C23.2586 29.8429 24.0542 29.522 24.8251 29.1478C26.7897 28.1999 29.4126 26.5728 32.1584 23.827C34.9042 21.079 36.5334 18.4582 37.4792 16.4936C37.9522 15.5124 38.2563 14.6957 38.4417 14.1124ZM11.0126 22.1832C9.25286 23.0773 7.7299 24.3754 6.56835 25.9713C5.40681 27.5672 4.6397 29.4154 4.32981 31.3648C4.01993 33.3141 4.17609 35.3092 4.7855 37.1866C5.39492 39.064 6.44026 40.7703 7.83597 42.1661C9.23168 43.5618 10.9381 44.6071 12.8155 45.2165C14.6929 45.8259 16.6879 45.9821 18.6372 45.6722C20.5866 45.3623 22.4349 44.5952 24.0307 43.4337C25.6266 42.2721 26.9247 40.7492 27.8188 38.9895C26.5176 38.3064 25.327 37.4305 24.2876 36.3915L13.6084 25.7124C12.5704 24.6734 11.6952 23.4836 11.0126 22.1832Z" fill="#24ABA0"/>
</svg>
