<svg width="148" height="121" viewBox="0 0 148 121" fill="none" xmlns="http://www.w3.org/2000/svg">
<path d="M144.877 3.18359H3.12109V96.2011H144.877V3.18359Z" fill="#FFE6B8"/>
<path d="M90.0816 96.2031H57.9277V117.302H90.0816V96.2031Z" fill="#B4C2BE"/>
<path d="M78.3438 68.9839L94.1067 64.2134L83.1143 53.2207L78.3438 68.9839Z" fill="#B4C2BE"/>
<path d="M128.109 30.2012L117.117 19.209L83.1039 53.2222L94.0961 64.2145L128.109 30.2012Z" fill="#FFAD61"/>
<path d="M132.258 26.0515C133.824 24.4861 133.824 21.948 132.258 20.3825L126.935 15.0589C125.369 13.4934 122.831 13.4934 121.265 15.0589L117.117 19.2071L128.11 30.1998L132.258 26.0515Z" fill="#FFDF8A"/>
<path d="M68.9958 15.9492H16.252V53.9584H68.9958V15.9492Z" fill="#FFBA00"/>
<path d="M103.452 120.246C105.076 120.246 106.393 118.929 106.393 117.305C106.393 115.681 105.076 114.364 103.452 114.364H93.0192V99.1463H144.878C146.503 99.1463 147.819 97.8297 147.819 96.2054V3.18702C147.819 1.56272 146.503 0.246094 144.878 0.246094H3.12257C1.49827 0.246094 0.181641 1.56272 0.181641 3.18702V96.2048C0.181641 97.8291 1.49827 99.1457 3.12257 99.1457H54.9817V114.364H44.5494C42.925 114.364 41.6084 115.68 41.6084 117.305C41.6084 118.929 42.925 120.246 44.5494 120.246H103.452V120.246ZM87.1373 114.364H60.8636V99.1463H87.1373V114.364ZM6.0635 93.2642V6.12795H141.937V93.2639H6.0635V93.2642Z" fill="#0C3B2E"/>
<path d="M16.2612 56.8997H69.0039C70.6282 56.8997 71.9449 55.5831 71.9449 53.9588V15.9487C71.9449 14.3244 70.6282 13.0078 69.0039 13.0078H16.2612C14.6369 13.0078 13.3203 14.3244 13.3203 15.9487V53.9591C13.3203 55.5831 14.6369 56.8997 16.2612 56.8997ZM42.191 51.0179H23.4981L32.8445 41.6714L42.191 51.0179ZM50.4731 51.0179C50.3978 50.9207 50.3183 50.8264 50.2289 50.7373L45.1763 45.6848L56.6191 34.242L66.063 43.6859V51.0185H50.4731V51.0179ZM66.063 18.8897V35.3671L58.6984 28.0028C57.5499 26.8543 55.6877 26.8546 54.5392 28.0028L41.0168 41.5252L34.9239 35.4323C33.7753 34.2838 31.9131 34.2838 30.7643 35.4323L19.2016 46.995V18.8894L66.063 18.8897Z" fill="#0C3B2E"/>
<path d="M134.346 28.1335C135.659 26.8209 136.381 25.0755 136.381 23.2194C136.381 21.3627 135.659 19.6176 134.346 18.3053L129.022 12.9814C126.312 10.2717 121.904 10.272 119.194 12.9814L81.0315 51.1443C80.6765 51.4992 80.432 51.9225 80.2965 52.3718L80.2962 52.3721L80.2956 52.3744C80.2933 52.3816 80.2913 52.3891 80.289 52.3963L76.1583 66.0461H16.2612C14.6369 66.0461 13.3203 67.3628 13.3203 68.9871C13.3203 70.6114 14.6369 71.928 16.2612 71.928H78.3383C78.3391 71.928 78.3403 71.928 78.3411 71.928C78.3417 71.928 78.3423 71.928 78.3432 71.928H78.4331C78.8645 71.928 79.2731 71.8328 79.6422 71.6659L94.9556 67.0315L94.9559 67.0312C95.4152 66.8922 95.8379 66.6416 96.1831 66.2961L134.346 28.1335ZM82.7469 64.581L84.5036 58.7761L88.5518 62.8244L82.7469 64.581ZM121.285 19.209L123.354 17.1406C123.77 16.7242 124.448 16.7242 124.864 17.1406L130.187 22.4645C130.459 22.7364 130.5 23.0542 130.5 23.2194C130.5 23.3846 130.459 23.7024 130.187 23.9743L128.119 26.0427L121.285 19.209ZM87.2703 53.2239L117.126 23.3682L123.959 30.2016L94.1035 60.0573L87.2703 53.2239Z" fill="#0C3B2E"/>
<path d="M16.2612 86.0694H119.001C120.626 86.0694 121.942 84.7527 121.942 83.1284C121.942 81.5041 120.626 80.1875 119.001 80.1875H16.2612C14.6369 80.1875 13.3203 81.5041 13.3203 83.1284C13.3203 84.7527 14.6369 86.0694 16.2612 86.0694Z" fill="#0C3B2E"/>
<path d="M132.059 80.1875H130.47C128.846 80.1875 127.529 81.5041 127.529 83.1284C127.529 84.7527 128.846 86.0694 130.47 86.0694H132.059C133.683 86.0694 135 84.7527 135 83.1284C135 81.5041 133.683 80.1875 132.059 80.1875Z" fill="#0C3B2E"/>
</svg>
