<svg width="17" height="5" viewBox="0 0 17 5" fill="none" xmlns="http://www.w3.org/2000/svg">
<path d="M13.8799 2.25C13.8799 2.80228 14.3276 3.25 14.8799 3.25C15.4322 3.25 15.8799 2.80228 15.8799 2.25C15.8799 1.69772 15.4322 1.25 14.8799 1.25C14.3276 1.25 13.8799 1.69772 13.8799 2.25Z" stroke="black" stroke-width="2" stroke-linecap="round" stroke-linejoin="round"/>
<path d="M7.87988 2.25C7.87988 2.80228 8.3276 3.25 8.87988 3.25C9.43217 3.25 9.87988 2.80228 9.87988 2.25C9.87988 1.69772 9.43217 1.25 8.87988 1.25C8.3276 1.25 7.87988 1.69772 7.87988 2.25Z" stroke="black" stroke-width="2" stroke-linecap="round" stroke-linejoin="round"/>
<path d="M1.87988 2.25C1.87988 2.80228 2.3276 3.25 2.87988 3.25C3.43217 3.25 3.87988 2.80228 3.87988 2.25C3.87988 1.69772 3.43217 1.25 2.87988 1.25C2.3276 1.25 1.87988 1.69772 1.87988 2.25Z" stroke="black" stroke-width="2" stroke-linecap="round" stroke-linejoin="round"/>
</svg>
