<svg width="10" height="15" viewBox="0 0 10 15" fill="none" xmlns="http://www.w3.org/2000/svg">
<path d="M6.65625 7.12305H5.40625V2.62305H6.15625C6.75299 2.62305 7.32528 2.8601 7.74724 3.28206C8.1692 3.70401 8.40625 4.27631 8.40625 4.87305C8.40625 4.93935 8.43259 5.00294 8.47947 5.04982C8.52636 5.09671 8.58995 5.12305 8.65625 5.12305C8.72255 5.12305 8.78614 5.09671 8.83303 5.04982C8.87991 5.00294 8.90625 4.93935 8.90625 4.87305C8.90542 4.14396 8.61543 3.44496 8.09988 2.92942C7.58433 2.41387 6.88534 2.12387 6.15625 2.12305H5.40625V0.873047C5.40625 0.806743 5.37991 0.743154 5.33303 0.69627C5.28614 0.649386 5.22255 0.623047 5.15625 0.623047C5.08995 0.623047 5.02636 0.649386 4.97947 0.69627C4.93259 0.743154 4.90625 0.806743 4.90625 0.873047V2.12305H4.15625C3.4269 2.12305 2.72743 2.41278 2.21171 2.9285C1.69598 3.44423 1.40625 4.1437 1.40625 4.87305C1.40625 5.60239 1.69598 6.30187 2.21171 6.81759C2.72743 7.33332 3.4269 7.62305 4.15625 7.62305H4.90625V12.123H3.65625C3.05951 12.123 2.48722 11.886 2.06526 11.464C1.6433 11.0421 1.40625 10.4698 1.40625 9.87305C1.40625 9.80674 1.37991 9.74315 1.33303 9.69627C1.28614 9.64939 1.22255 9.62305 1.15625 9.62305C1.08995 9.62305 1.02636 9.64939 0.979473 9.69627C0.932589 9.74315 0.90625 9.80674 0.90625 9.87305C0.907077 10.6021 1.19707 11.3011 1.71262 11.8167C2.22817 12.3322 2.92716 12.6222 3.65625 12.623H4.90625V13.873C4.90625 13.9394 4.93259 14.0029 4.97947 14.0498C5.02636 14.0967 5.08995 14.123 5.15625 14.123C5.22255 14.123 5.28614 14.0967 5.33303 14.0498C5.37991 14.0029 5.40625 13.9394 5.40625 13.873V12.623H6.65625C7.3856 12.623 8.08507 12.3333 8.60079 11.8176C9.11652 11.3019 9.40625 10.6024 9.40625 9.87305C9.40625 9.1437 9.11652 8.44423 8.60079 7.9285C8.08507 7.41278 7.3856 7.12305 6.65625 7.12305ZM4.15625 7.12305C3.55951 7.12305 2.98722 6.88599 2.56526 6.46404C2.1433 6.04208 1.90625 5.46978 1.90625 4.87305C1.90625 4.27631 2.1433 3.70401 2.56526 3.28206C2.98722 2.8601 3.55951 2.62305 4.15625 2.62305H4.90625V7.12305H4.15625ZM6.65625 12.123H5.40625V7.62305H6.65625C7.25299 7.62305 7.82528 7.8601 8.24724 8.28206C8.6692 8.70401 8.90625 9.27631 8.90625 9.87305C8.90625 10.4698 8.6692 11.0421 8.24724 11.464C7.82528 11.886 7.25299 12.123 6.65625 12.123Z" fill="black"/>
</svg>
