<svg width="20" height="20" viewBox="0 0 20 20" fill="none" xmlns="http://www.w3.org/2000/svg">
<path d="M9.65625 0.373047C12.1758 0.373047 14.5922 1.37394 16.3738 3.15553C18.1554 4.93713 19.1562 7.35349 19.1562 9.87305C19.1562 12.3926 18.1554 14.809 16.3738 16.5906C14.5922 18.3722 12.1758 19.373 9.65625 19.373C7.13669 19.373 4.72033 18.3722 2.93874 16.5906C1.15714 14.809 0.15625 12.3926 0.15625 9.87305C0.15625 7.35349 1.15714 4.93713 2.93874 3.15553C4.72033 1.37394 7.13669 0.373047 9.65625 0.373047ZM9.65625 1.37305C7.40191 1.37305 5.2399 2.26858 3.64584 3.86264C2.05178 5.4567 1.15625 7.61871 1.15625 9.87305C1.15625 12.1274 2.05178 14.2894 3.64584 15.8835C5.2399 17.4775 7.40191 18.373 9.65625 18.373C10.7725 18.373 11.8778 18.1532 12.9091 17.726C13.9403 17.2989 14.8774 16.6728 15.6667 15.8835C16.456 15.0942 17.0821 14.1571 17.5092 13.1259C17.9364 12.0946 18.1562 10.9893 18.1562 9.87305C18.1562 7.61871 17.2607 5.4567 15.6667 3.86264C14.0726 2.26858 11.9106 1.37305 9.65625 1.37305ZM9.15625 4.37305H10.1562V9.79305L14.8563 12.503L14.3563 13.373L9.15625 10.373V4.37305Z" fill="black"/>
</svg>
