<svg width="15" height="13" viewBox="0 0 15 13" fill="none" xmlns="http://www.w3.org/2000/svg">
<path d="M10.6444 11.6522H13.9454V10.3318C13.9454 9.23795 13.0587 8.35119 11.9648 8.35119C11.3339 8.35119 10.7719 8.64617 10.4092 9.10574M10.6444 11.6522H4.04227M10.6444 11.6522V10.3318C10.6444 9.89857 10.5609 9.48481 10.4092 9.10574M4.04227 11.6522H0.741211V10.3318C0.741211 9.23795 1.62797 8.35119 2.72184 8.35119C3.35275 8.35119 3.91475 8.64617 4.27746 9.10574M4.04227 11.6522V10.3318C4.04227 9.89857 4.12573 9.48481 4.27746 9.10574M4.27746 9.10574C4.76421 7.88972 5.95346 7.03077 7.34332 7.03077C8.73319 7.03077 9.92244 7.88972 10.4092 9.10574M9.32396 3.0695C9.32396 4.16337 8.4372 5.05013 7.34332 5.05013C6.24945 5.05013 5.36269 4.16337 5.36269 3.0695C5.36269 1.97563 6.24945 1.08887 7.34332 1.08887C8.4372 1.08887 9.32396 1.97563 9.32396 3.0695ZM13.2852 5.05013C13.2852 5.77938 12.6941 6.37056 11.9648 6.37056C11.2356 6.37056 10.6444 5.77938 10.6444 5.05013C10.6444 4.32089 11.2356 3.72971 11.9648 3.72971C12.6941 3.72971 13.2852 4.32089 13.2852 5.05013ZM4.04227 5.05013C4.04227 5.77938 3.45109 6.37056 2.72184 6.37056C1.9926 6.37056 1.40142 5.77938 1.40142 5.05013C1.40142 4.32089 1.9926 3.72971 2.72184 3.72971C3.45109 3.72971 4.04227 4.32089 4.04227 5.05013Z" stroke="#2D3F53" stroke-width="1.32042" stroke-linecap="round" stroke-linejoin="round"/>
</svg>
