<svg width="5" height="19" viewBox="0 0 5 19" fill="none" xmlns="http://www.w3.org/2000/svg">
<path d="M2.23242 10.0801C2.78471 10.0801 3.23242 9.63236 3.23242 9.08008C3.23242 8.52779 2.78471 8.08008 2.23242 8.08008C1.68014 8.08008 1.23242 8.52779 1.23242 9.08008C1.23242 9.63236 1.68014 10.0801 2.23242 10.0801Z" stroke="#1E1E1E" stroke-width="2" stroke-linecap="round" stroke-linejoin="round"/>
<path d="M2.23242 3.08008C2.78471 3.08008 3.23242 2.63236 3.23242 2.08008C3.23242 1.52779 2.78471 1.08008 2.23242 1.08008C1.68014 1.08008 1.23242 1.52779 1.23242 2.08008C1.23242 2.63236 1.68014 3.08008 2.23242 3.08008Z" stroke="#1E1E1E" stroke-width="2" stroke-linecap="round" stroke-linejoin="round"/>
<path d="M2.23242 17.0801C2.78471 17.0801 3.23242 16.6324 3.23242 16.0801C3.23242 15.5278 2.78471 15.0801 2.23242 15.0801C1.68014 15.0801 1.23242 15.5278 1.23242 16.0801C1.23242 16.6324 1.68014 17.0801 2.23242 17.0801Z" stroke="#1E1E1E" stroke-width="2" stroke-linecap="round" stroke-linejoin="round"/>
</svg>
