<svg width="74" height="20" viewBox="0 0 74 20" fill="none" xmlns="http://www.w3.org/2000/svg">
<g clip-path="url(#clip0_452_3195)">
<path d="M16.0711 18.9268L8.06907 11.4318C7.93107 11.3168 7.75717 11.2539 7.57758 11.2539C7.398 11.2539 7.22408 11.3168 7.0861 11.4318L1.23438 15.6401" stroke="#030806" stroke-width="1.42857" stroke-linecap="round" stroke-linejoin="round"/>
<path d="M14.5843 11.2545C13.4008 11.2545 12.4414 10.2951 12.4414 9.11161C12.4414 7.92814 13.4008 6.96875 14.5843 6.96875C15.7677 6.96875 16.7271 7.92814 16.7271 9.11161C16.7271 10.2951 15.7677 11.2545 14.5843 11.2545Z" stroke="#030806" stroke-width="1.42857" stroke-linecap="round" stroke-linejoin="round"/>
<path d="M1.21289 17.4995V2.49949C1.21289 2.1206 1.3634 1.75725 1.63131 1.48933C1.89922 1.22143 2.26258 1.07092 2.64146 1.07092H7.91289C8.23922 1.06141 8.55898 1.16397 8.81891 1.36151C9.07882 1.55905 9.26325 1.83966 9.34146 2.15663L9.78432 3.92806H18.3557C18.7346 3.92806 19.098 4.07858 19.3659 4.34648C19.6337 4.61439 19.7843 4.97775 19.7843 5.35663V17.4995C19.7843 17.8784 19.6337 18.2418 19.3659 18.5097C19.098 18.7775 18.7346 18.9281 18.3557 18.9281H2.64146C2.26258 18.9281 1.89922 18.7775 1.63131 18.5097C1.3634 18.2418 1.21289 17.8784 1.21289 17.4995Z" stroke="#030806" stroke-width="1.42857" stroke-linecap="round" stroke-linejoin="round"/>
</g>
<path d="M33.24 14.62C32.088 14.62 31.184 14.296 30.528 13.648C29.88 13 29.556 12.064 29.556 10.84V6.1H31.116V10.78C31.116 11.644 31.3 12.272 31.668 12.664C32.044 13.056 32.572 13.252 33.252 13.252C33.932 13.252 34.456 13.056 34.824 12.664C35.192 12.272 35.376 11.644 35.376 10.78V6.1H36.912V10.84C36.912 12.064 36.584 13 35.928 13.648C35.28 14.296 34.384 14.62 33.24 14.62ZM42.5048 14.584C41.9848 14.584 41.5088 14.464 41.0768 14.224C40.6528 13.984 40.3128 13.624 40.0568 13.144C39.8088 12.656 39.6848 12.04 39.6848 11.296C39.6848 10.544 39.8048 9.928 40.0448 9.448C40.2928 8.968 40.6288 8.612 41.0527 8.38C41.4768 8.14 41.9608 8.02 42.5048 8.02C43.1368 8.02 43.6928 8.156 44.1728 8.428C44.6608 8.7 45.0448 9.08 45.3248 9.568C45.6128 10.056 45.7568 10.632 45.7568 11.296C45.7568 11.96 45.6128 12.54 45.3248 13.036C45.0448 13.524 44.6608 13.904 44.1728 14.176C43.6928 14.448 43.1368 14.584 42.5048 14.584ZM38.9528 16.828V8.092H40.3808V9.604L40.3328 11.308L40.4528 13.012V16.828H38.9528ZM42.3368 13.3C42.6968 13.3 43.0168 13.22 43.2968 13.06C43.5848 12.9 43.8128 12.668 43.9808 12.364C44.1488 12.06 44.2328 11.704 44.2328 11.296C44.2328 10.88 44.1488 10.524 43.9808 10.228C43.8128 9.924 43.5848 9.692 43.2968 9.532C43.0168 9.372 42.6968 9.292 42.3368 9.292C41.9768 9.292 41.6528 9.372 41.3648 9.532C41.0768 9.692 40.8488 9.924 40.6808 10.228C40.5128 10.524 40.4288 10.88 40.4288 11.296C40.4288 11.704 40.5128 12.06 40.6808 12.364C40.8488 12.668 41.0768 12.9 41.3648 13.06C41.6528 13.22 41.9768 13.3 42.3368 13.3ZM47.1793 14.5V5.596H48.6793V14.5H47.1793ZM53.5281 14.584C52.8721 14.584 52.2881 14.444 51.7761 14.164C51.2641 13.876 50.8601 13.484 50.5641 12.988C50.2681 12.492 50.1201 11.928 50.1201 11.296C50.1201 10.656 50.2681 10.092 50.5641 9.604C50.8601 9.108 51.2641 8.72 51.7761 8.44C52.2881 8.16 52.8721 8.02 53.5281 8.02C54.1921 8.02 54.7801 8.16 55.2921 8.44C55.8121 8.72 56.2161 9.104 56.5041 9.592C56.8001 10.08 56.9481 10.648 56.9481 11.296C56.9481 11.928 56.8001 12.492 56.5041 12.988C56.2161 13.484 55.8121 13.876 55.2921 14.164C54.7801 14.444 54.1921 14.584 53.5281 14.584ZM53.5281 13.3C53.8961 13.3 54.2241 13.22 54.5121 13.06C54.8001 12.9 55.0241 12.668 55.1841 12.364C55.3521 12.06 55.4361 11.704 55.4361 11.296C55.4361 10.88 55.3521 10.524 55.1841 10.228C55.0241 9.924 54.8001 9.692 54.5121 9.532C54.2241 9.372 53.9001 9.292 53.5401 9.292C53.1721 9.292 52.8441 9.372 52.5561 9.532C52.2761 9.692 52.0521 9.924 51.8841 10.228C51.7161 10.524 51.6321 10.88 51.6321 11.296C51.6321 11.704 51.7161 12.06 51.8841 12.364C52.0521 12.668 52.2761 12.9 52.5561 13.06C52.8441 13.22 53.1681 13.3 53.5281 13.3ZM62.2484 14.5V13.204L62.1644 12.928V10.66C62.1644 10.22 62.0324 9.88 61.7684 9.64C61.5044 9.392 61.1044 9.268 60.5684 9.268C60.2084 9.268 59.8524 9.324 59.5004 9.436C59.1564 9.548 58.8644 9.704 58.6244 9.904L58.0364 8.812C58.3804 8.548 58.7884 8.352 59.2604 8.224C59.7404 8.088 60.2364 8.02 60.7484 8.02C61.6764 8.02 62.3924 8.244 62.8964 8.692C63.4084 9.132 63.6644 9.816 63.6644 10.744V14.5H62.2484ZM60.2324 14.584C59.7524 14.584 59.3324 14.504 58.9724 14.344C58.6124 14.176 58.3324 13.948 58.1324 13.66C57.9404 13.364 57.8444 13.032 57.8444 12.664C57.8444 12.304 57.9284 11.98 58.0964 11.692C58.2724 11.404 58.5564 11.176 58.9484 11.008C59.3404 10.84 59.8604 10.756 60.5084 10.756H62.3684V11.752H60.6164C60.1044 11.752 59.7604 11.836 59.5844 12.004C59.4084 12.164 59.3204 12.364 59.3204 12.604C59.3204 12.876 59.4284 13.092 59.6444 13.252C59.8604 13.412 60.1604 13.492 60.5444 13.492C60.9124 13.492 61.2404 13.408 61.5284 13.24C61.8244 13.072 62.0364 12.824 62.1644 12.496L62.4164 13.396C62.2724 13.772 62.0124 14.064 61.6364 14.272C61.2684 14.48 60.8004 14.584 60.2324 14.584ZM68.3132 14.584C67.6972 14.584 67.1412 14.448 66.6452 14.176C66.1572 13.896 65.7732 13.512 65.4932 13.024C65.2132 12.536 65.0732 11.96 65.0732 11.296C65.0732 10.632 65.2132 10.056 65.4932 9.568C65.7732 9.08 66.1572 8.7 66.6452 8.428C67.1412 8.156 67.6972 8.02 68.3132 8.02C68.8492 8.02 69.3292 8.14 69.7532 8.38C70.1772 8.612 70.5132 8.968 70.7612 9.448C71.0092 9.928 71.1332 10.544 71.1332 11.296C71.1332 12.04 71.0132 12.656 70.7732 13.144C70.5332 13.624 70.2012 13.984 69.7772 14.224C69.3532 14.464 68.8652 14.584 68.3132 14.584ZM68.4932 13.3C68.8532 13.3 69.1732 13.22 69.4532 13.06C69.7412 12.9 69.9692 12.668 70.1372 12.364C70.3132 12.06 70.4012 11.704 70.4012 11.296C70.4012 10.88 70.3132 10.524 70.1372 10.228C69.9692 9.924 69.7412 9.692 69.4532 9.532C69.1732 9.372 68.8532 9.292 68.4932 9.292C68.1332 9.292 67.8092 9.372 67.5212 9.532C67.2412 9.692 67.0132 9.924 66.8372 10.228C66.6692 10.524 66.5852 10.88 66.5852 11.296C66.5852 11.704 66.6692 12.06 66.8372 12.364C67.0132 12.668 67.2412 12.9 67.5212 13.06C67.8092 13.22 68.1332 13.3 68.4932 13.3ZM70.4372 14.5V12.988L70.4972 11.284L70.3772 9.58V5.596H71.8652V14.5H70.4372Z" fill="#39413F"/>
<defs>
<clipPath id="clip0_452_3195">
<rect width="20" height="20" fill="white" transform="translate(0.5)"/>
</clipPath>
</defs>
</svg>
