<svg width="30" height="30" viewBox="0 0 30 30" fill="none" xmlns="http://www.w3.org/2000/svg">
<rect x="0.818359" y="0.720703" width="29.0493" height="29.0493" rx="14.5246" fill="white"/>
<path d="M18.6434 20.5243H21.9445V19.2039C21.9445 18.11 21.0577 17.2233 19.9638 17.2233C19.3329 17.2233 18.7709 17.5182 18.4082 17.9778M18.6434 20.5243H12.0413M18.6434 20.5243V19.2039C18.6434 18.7706 18.5599 18.3569 18.4082 17.9778M12.0413 20.5243H8.74023V19.2039C8.74023 18.11 9.62699 17.2233 10.7209 17.2233C11.3518 17.2233 11.9138 17.5182 12.2765 17.9778M12.0413 20.5243V19.2039C12.0413 18.7706 12.1248 18.3569 12.2765 17.9778M12.2765 17.9778C12.7632 16.7618 13.9525 15.9028 15.3423 15.9028C16.7322 15.9028 17.9215 16.7618 18.4082 17.9778M17.323 11.9416C17.323 13.0354 16.4362 13.9222 15.3423 13.9222C14.2485 13.9222 13.3617 13.0354 13.3617 11.9416C13.3617 10.8477 14.2485 9.96094 15.3423 9.96094C16.4362 9.96094 17.323 10.8477 17.323 11.9416ZM21.2842 13.9222C21.2842 14.6515 20.6931 15.2426 19.9638 15.2426C19.2346 15.2426 18.6434 14.6515 18.6434 13.9222C18.6434 13.193 19.2346 12.6018 19.9638 12.6018C20.6931 12.6018 21.2842 13.193 21.2842 13.9222ZM12.0413 13.9222C12.0413 14.6515 11.4501 15.2426 10.7209 15.2426C9.99162 15.2426 9.40045 14.6515 9.40045 13.9222C9.40045 13.193 9.99162 12.6018 10.7209 12.6018C11.4501 12.6018 12.0413 13.193 12.0413 13.9222Z" stroke="#2D3F53" stroke-width="1.32042" stroke-linecap="round" stroke-linejoin="round"/>
</svg>
